<?xml version="1.0" standalone="no"?><!-- Generator: Gravit.io --><svg xmlns="http://www.w3.org/2000/svg" xmlns:xlink="http://www.w3.org/1999/xlink" style="isolation:isolate" viewBox="0 0 2000 1000" width="2000" height="1000"><defs><clipPath id="_clipPath_ZrC1QBR6BuBIHuMJloXCn8Wzkh9rDIeT"><rect width="2000" height="1000"/></clipPath></defs><g clip-path="url(#_clipPath_ZrC1QBR6BuBIHuMJloXCn8Wzkh9rDIeT)"><linearGradient id="_lgradient_5" x1="0" y1="0.5" x2="1" y2="0.5" gradientTransform="matrix(203.208,0,0,212.962,1015.8,295.519)" gradientUnits="userSpaceOnUse"><stop offset="0%" stop-opacity="1" style="stop-color:rgb(255,69,75)"/><stop offset="98.69565217391305%" stop-opacity="1" style="stop-color:rgb(215,69,255)"/></linearGradient><path d=" M 1219.008 508.481 C 1106.854 508.481 1015.8 417.427 1015.8 305.273 C 1015.8 302.002 1015.877 298.75 1016.04 295.519 L 1219.008 295.519 L 1219.008 508.481 L 1219.008 508.481 Z " fill="url(#_lgradient_5)"/><linearGradient id="_lgradient_6" x1="0" y1="0.5" x2="1" y2="0.5" gradientTransform="matrix(196.565,0,0,206,381.435,456)" gradientUnits="userSpaceOnUse"><stop offset="0%" stop-opacity="1" style="stop-color:rgb(255,69,75)"/><stop offset="98.69565217391305%" stop-opacity="1" style="stop-color:rgb(215,69,255)"/></linearGradient><path d=" M 578 662 C 469.513 662 381.435 573.922 381.435 465.435 C 381.435 462.271 381.51 459.125 381.668 456 L 578 456 L 578 662 L 578 662 Z " fill="url(#_lgradient_6)"/><linearGradient id="_lgradient_7" x1="0" y1="0.5" x2="1" y2="0.5" gradientTransform="matrix(354.962,0,0,372,578,290)" gradientUnits="userSpaceOnUse"><stop offset="0%" stop-opacity="1" style="stop-color:rgb(255,69,75)"/><stop offset="98.69565217391305%" stop-opacity="1" style="stop-color:rgb(215,69,255)"/></linearGradient><path d=" M 578 662 C 773.909 662 932.962 502.947 932.962 307.038 C 932.962 301.325 932.827 295.643 932.542 290 L 932.542 290 L 578 290 L 578 662 L 578 662 Z " fill="url(#_lgradient_7)"/><linearGradient id="_lgradient_8" x1="0" y1="0.5" x2="1" y2="0.5" gradientTransform="matrix(107.198,0,0,112.344,962.201,756)" gradientUnits="userSpaceOnUse"><stop offset="0%" stop-opacity="1" style="stop-color:rgb(255,69,75)"/><stop offset="98.69565217391305%" stop-opacity="1" style="stop-color:rgb(215,69,255)"/></linearGradient><path d=" M 962.201 868.344 C 1021.365 868.344 1069.399 820.31 1069.399 761.146 C 1069.399 759.42 1069.358 757.704 1069.273 756 L 1069.273 756 L 962.201 756 L 962.201 868.344 L 962.201 868.344 Z " fill="url(#_lgradient_8)"/><linearGradient id="_lgradient_9" x1="0" y1="0.5" x2="1" y2="0.5" gradientTransform="matrix(51.527,0,0,54,1719.672,402)" gradientUnits="userSpaceOnUse"><stop offset="0%" stop-opacity="1" style="stop-color:rgb(255,69,75)"/><stop offset="98.69565217391305%" stop-opacity="1" style="stop-color:rgb(215,69,255)"/></linearGradient><path d=" M 1719.672 456 C 1748.11 456 1771.198 432.912 1771.198 404.473 C 1771.198 403.644 1771.179 402.819 1771.138 402 L 1771.138 402 L 1719.672 402 L 1719.672 456 L 1719.672 456 Z " fill="url(#_lgradient_9)"/><linearGradient id="_lgradient_10" x1="0" y1="0.5" x2="1" y2="0.5" gradientTransform="matrix(249.409,0,0,237.718,578,52.282)" gradientUnits="userSpaceOnUse"><stop offset="0%" stop-opacity="1" style="stop-color:rgb(255,69,75)"/><stop offset="98.69565217391305%" stop-opacity="1" style="stop-color:rgb(215,69,255)"/></linearGradient><path d=" M 827.409 290 L 578 290 C 584.253 157.74 693.612 52.282 827.409 52.282 L 827.409 290 L 827.409 290 Z " fill="url(#_lgradient_10)"/><linearGradient id="_lgradient_11" x1="0" y1="0.5" x2="1" y2="0.5" gradientTransform="matrix(117.508,0,0,112,1392,290)" gradientUnits="userSpaceOnUse"><stop offset="0%" stop-opacity="1" style="stop-color:rgb(255,69,75)"/><stop offset="98.69565217391305%" stop-opacity="1" style="stop-color:rgb(215,69,255)"/></linearGradient><path d=" M 1509.508 402 L 1392 402 C 1394.946 339.686 1446.47 290 1509.508 290 L 1509.508 402 L 1509.508 402 Z " fill="url(#_lgradient_11)"/><linearGradient id="_lgradient_12" x1="0" y1="0.5" x2="1" y2="0.5" gradientTransform="matrix(198.295,0,0,189,381.435,267)" gradientUnits="userSpaceOnUse"><stop offset="0%" stop-opacity="1" style="stop-color:rgb(255,69,75)"/><stop offset="98.69565217391305%" stop-opacity="1" style="stop-color:rgb(215,69,255)"/></linearGradient><path d=" M 381.435 456 L 579.73 456 L 579.73 456 C 574.758 350.845 487.811 267 381.435 267 L 381.435 456 L 381.435 456 Z " fill="url(#_lgradient_12)"/><linearGradient id="_lgradient_13" x1="0" y1="0.5" x2="1" y2="0.5" gradientTransform="matrix(268.59,0,0,256,1357,500)" gradientUnits="userSpaceOnUse"><stop offset="0%" stop-opacity="1" style="stop-color:rgb(255,69,75)"/><stop offset="98.69565217391305%" stop-opacity="1" style="stop-color:rgb(215,69,255)"/></linearGradient><path d=" M 1357 756 L 1625.59 756 L 1625.59 756 C 1618.856 613.568 1501.086 500 1357 500 L 1357 756 L 1357 756 Z " fill="url(#_lgradient_13)"/></g></svg>