<?xml version="1.0" standalone="no"?><!-- Generator: Gravit.io --><svg xmlns="http://www.w3.org/2000/svg" xmlns:xlink="http://www.w3.org/1999/xlink" style="isolation:isolate" viewBox="0 0 1225 2636" width="1225" height="2636"><defs><clipPath id="_clipPath_4qDd9XeG09L33tiUif9vP71B10EdLEcP"><rect width="1225" height="2636"/></clipPath></defs><g clip-path="url(#_clipPath_4qDd9XeG09L33tiUif9vP71B10EdLEcP)"><path d="M 158.36 39 L 1075.64 39 C 1147.036 39 1205 96.964 1205 168.36 L 1205 2463.64 C 1205 2535.036 1147.036 2593 1075.64 2593 L 158.36 2593 C 86.964 2593 29 2535.036 29 2463.64 L 29 168.36 C 29 96.964 86.964 39 158.36 39 Z" style="stroke:none;fill:#EAE9E9;stroke-miterlimit:10;"/><path d="M 158.36 39 L 1075.64 39 C 1147.036 39 1205 96.964 1205 168.36 L 1205 2463.64 C 1205 2535.036 1147.036 2593 1075.64 2593 L 158.36 2593 C 86.964 2593 29 2535.036 29 2463.64 L 29 168.36 C 29 96.964 86.964 39 158.36 39 Z" style="fill:none;stroke:#000000;stroke-width:1;stroke-linecap:square;stroke-miterlimit:2;"/><path d="M 206.764 95 L 1027.236 95 C 1093.707 95 1147.673 148.966 1147.673 215.438 L 1147.673 2427.562 C 1147.673 2494.034 1093.707 2548 1027.236 2548 L 206.764 2548 C 140.293 2548 86.327 2494.034 86.327 2427.562 L 86.327 215.438 C 86.327 148.966 140.293 95 206.764 95 Z" style="stroke:none;fill:#FFFFFF;stroke-linecap:square;stroke-miterlimit:2;"/><path d="M 206.764 95 L 1027.236 95 C 1093.707 95 1147.673 148.966 1147.673 215.438 L 1147.673 2427.562 C 1147.673 2494.034 1093.707 2548 1027.236 2548 L 206.764 2548 C 140.293 2548 86.327 2494.034 86.327 2427.562 L 86.327 215.438 C 86.327 148.966 140.293 95 206.764 95 Z" style="fill:none;stroke:#0073FF;stroke-width:1;stroke-linecap:square;stroke-miterlimit:2;"/><clipPath id="_clipPath_KSe6G12Lwxhk2iJ2XIEsqr7cMkihQ8Ez"><path d="M 206.764 95 L 1027.236 95 C 1093.707 95 1147.673 148.966 1147.673 215.438 L 1147.673 2427.562 C 1147.673 2494.034 1093.707 2548 1027.236 2548 L 206.764 2548 C 140.293 2548 86.327 2494.034 86.327 2427.562 L 86.327 215.438 C 86.327 148.966 140.293 95 206.764 95 Z" style="stroke:none;fill:#FFFFFF;stroke-linecap:square;stroke-miterlimit:2;"/><path d="M 206.764 95 L 1027.236 95 C 1093.707 95 1147.673 148.966 1147.673 215.438 L 1147.673 2427.562 C 1147.673 2494.034 1093.707 2548 1027.236 2548 L 206.764 2548 C 140.293 2548 86.327 2494.034 86.327 2427.562 L 86.327 215.438 C 86.327 148.966 140.293 95 206.764 95 Z" style="fill:none;stroke:#0073FF;stroke-width:1;stroke-linecap:square;stroke-miterlimit:2;"/></clipPath><g clip-path="url(#_clipPath_KSe6G12Lwxhk2iJ2XIEsqr7cMkihQ8Ez)"><circle vector-effect="non-scaling-stroke" cx="1205" cy="2664" r="755" fill="rgb(35,150,200)" style="mix-blend-mode:multiply;"/></g><path d="M 435 1404 L 799 1404 C 836.53 1404 867 1434.47 867 1472 L 867 1472 C 867 1509.53 836.53 1540 799 1540 L 435 1540 C 397.47 1540 367 1509.53 367 1472 L 367 1472 C 367 1434.47 397.47 1404 435 1404 Z" style="stroke:none;fill:#9BCDD7;stroke-linecap:square;stroke-miterlimit:2;"/><circle vector-effect="non-scaling-stroke" cx="1014" cy="226" r="58" fill="rgb(235,235,235)"/><path d="M 340.8 872 L 893.2 872 C 906.336 872 917 882.664 917 895.8 L 917 988.2 C 917 1001.336 906.336 1012 893.2 1012 L 340.8 1012 C 327.664 1012 317 1001.336 317 988.2 L 317 895.8 C 317 882.664 327.664 872 340.8 872 Z" style="stroke:none;fill:#EBEBEB;stroke-linecap:square;stroke-miterlimit:2;"/><path d="M 340.8 1113.5 L 893.2 1113.5 C 906.336 1113.5 917 1124.164 917 1137.3 L 917 1229.7 C 917 1242.836 906.336 1253.5 893.2 1253.5 L 340.8 1253.5 C 327.664 1253.5 317 1242.836 317 1229.7 L 317 1137.3 C 317 1124.164 327.664 1113.5 340.8 1113.5 Z" style="stroke:none;fill:#EBEBEB;stroke-linecap:square;stroke-miterlimit:2;"/></g></svg>