<?xml version="1.0" standalone="no"?><!-- Generator: Gravit.io --><svg xmlns="http://www.w3.org/2000/svg" xmlns:xlink="http://www.w3.org/1999/xlink" style="isolation:isolate" viewBox="0 0 1824 1568" width="1824" height="1568"><defs><clipPath id="_clipPath_nd0usedaeD3TN50oxImnz1dVonDTAntg"><rect width="1824" height="1568"/></clipPath></defs><g clip-path="url(#_clipPath_nd0usedaeD3TN50oxImnz1dVonDTAntg)"><circle vector-effect="non-scaling-stroke" cx="914.4106521770864" cy="783.9999999999998" r="308.24581573725527" fill="rgb(235,235,235)"/><circle vector-effect="non-scaling-stroke" cx="914.4106521770864" cy="783.9999999999998" r="308.24581573725527" fill="rgb(255,0,111)"/><linearGradient id="_lgradient_30" x1="0" y1="0.5" x2="1" y2="0.5" gradientTransform="matrix(616.492,0,0,616.492,606.165,475.754)" gradientUnits="userSpaceOnUse"><stop offset="0%" stop-opacity="1" style="stop-color:rgb(255,0,111)"/><stop offset="97.82608695652173%" stop-opacity="1" style="stop-color:rgb(139,135,193)"/></linearGradient><circle vector-effect="non-scaling-stroke" cx="914.4106521770864" cy="783.9999999999998" r="308.24581573725527" fill="url(#_lgradient_30)"/><g opacity="0.76"><linearGradient id="_lgradient_31" x1="0" y1="0.5" x2="1" y2="0.5" gradientTransform="matrix(-387.098,-479.81,479.81,-387.098,1066.696,1068.949)" gradientUnits="userSpaceOnUse"><stop offset="0%" stop-opacity="1" style="stop-color:rgb(255,0,111)"/><stop offset="97.82608695652173%" stop-opacity="1" style="stop-color:rgb(139,135,193)"/></linearGradient><path d=" M 1306.6 875.4 C 1174.193 982.223 979.969 961.451 873.147 829.044 C 766.324 696.637 787.096 502.413 919.503 395.59 C 1051.91 288.768 1246.134 309.539 1352.957 441.947 C 1459.779 574.354 1439.008 768.578 1306.6 875.4 Z " fill="url(#_lgradient_31)"/></g><ellipse vector-effect="non-scaling-stroke" cx="996.2500525815014" cy="703.921060379614" rx="600.7713040354174" ry="599.6922769740711" fill="none" stroke-width="0.2" stroke="rgb(0,0,0)" stroke-linejoin="miter" stroke-linecap="butt" stroke-miterlimit="3"/><ellipse vector-effect="non-scaling-stroke" cx="914.4106521770866" cy="783.9999999999999" rx="785.4106521770866" ry="784.0000000000001" fill="none" stroke-width="0.5" stroke="rgb(255,50,108)" stroke-linejoin="miter" stroke-linecap="butt" stroke-miterlimit="3"/><circle vector-effect="non-scaling-stroke" cx="302.75005258150145" cy="1277.7287834055428" r="11.5" fill="rgb(18,10,38)"/><ellipse vector-effect="non-scaling-stroke" cx="651.2500525815013" cy="1195.7287834055426" rx="7" ry="7.5" fill="rgb(18,10,38)"/><g transform="matrix(1,0,0,1,192.25,1271.458)"><text transform="matrix(1,0,0,1,0,12.667)" style="font-family:'Numans';font-weight:400;font-size:14px;font-style:normal;fill:#666666;stroke:none;">Major Tom</text></g></g></svg>