<?xml version="1.0" standalone="no"?><!-- Generator: Gravit.io --><svg xmlns="http://www.w3.org/2000/svg" xmlns:xlink="http://www.w3.org/1999/xlink" style="isolation:isolate" viewBox="0 0 2000 3500" width="2000" height="3500"><defs><clipPath id="_clipPath_OJaNOUjGLfHYh3ZagC8N2Mlz9c25OWeU"><rect width="2000" height="3500"/></clipPath></defs><g clip-path="url(#_clipPath_OJaNOUjGLfHYh3ZagC8N2Mlz9c25OWeU)"><linearGradient id="_lgradient_14" x1="0" y1="0.5" x2="1" y2="0.5" gradientTransform="matrix(203.208,0,0,212.962,939.483,2737.706)" gradientUnits="userSpaceOnUse"><stop offset="0%" stop-opacity="1" style="stop-color:rgb(255,69,75)"/><stop offset="98.69565217391305%" stop-opacity="1" style="stop-color:rgb(215,69,255)"/></linearGradient><path d=" M 1142.691 2950.668 C 1030.538 2950.668 939.483 2859.614 939.483 2747.46 C 939.483 2744.189 939.561 2740.937 939.724 2737.706 L 1142.691 2737.706 L 1142.691 2950.668 L 1142.691 2950.668 Z " fill="url(#_lgradient_14)"/><linearGradient id="_lgradient_15" x1="0" y1="0.5" x2="1" y2="0.5" gradientTransform="matrix(196.565,0,0,206,305.118,2898.187)" gradientUnits="userSpaceOnUse"><stop offset="0%" stop-opacity="1" style="stop-color:rgb(255,69,75)"/><stop offset="98.69565217391305%" stop-opacity="1" style="stop-color:rgb(215,69,255)"/></linearGradient><path d=" M 501.683 3104.187 C 393.196 3104.187 305.118 3016.109 305.118 2907.622 C 305.118 2904.458 305.193 2901.312 305.351 2898.187 L 501.683 2898.187 L 501.683 3104.187 L 501.683 3104.187 Z " fill="url(#_lgradient_15)"/><linearGradient id="_lgradient_16" x1="0" y1="0.5" x2="1" y2="0.5" gradientTransform="matrix(354.962,0,0,372,501.683,2732.187)" gradientUnits="userSpaceOnUse"><stop offset="0%" stop-opacity="1" style="stop-color:rgb(255,69,75)"/><stop offset="98.69565217391305%" stop-opacity="1" style="stop-color:rgb(215,69,255)"/></linearGradient><path d=" M 501.683 3104.187 C 697.592 3104.187 856.645 2945.134 856.645 2749.225 C 856.645 2743.512 856.51 2737.83 856.225 2732.187 L 856.225 2732.187 L 501.683 2732.187 L 501.683 3104.187 L 501.683 3104.187 Z " fill="url(#_lgradient_16)"/><linearGradient id="_lgradient_17" x1="0" y1="0.5" x2="1" y2="0.5" gradientTransform="matrix(107.198,0,0,112.344,885.884,3198.187)" gradientUnits="userSpaceOnUse"><stop offset="0%" stop-opacity="1" style="stop-color:rgb(255,69,75)"/><stop offset="98.69565217391305%" stop-opacity="1" style="stop-color:rgb(215,69,255)"/></linearGradient><path d=" M 885.884 3310.531 C 945.048 3310.531 993.082 3262.497 993.082 3203.333 C 993.082 3201.607 993.042 3199.891 992.956 3198.187 L 992.956 3198.187 L 885.884 3198.187 L 885.884 3310.531 L 885.884 3310.531 Z " fill="url(#_lgradient_17)"/><linearGradient id="_lgradient_18" x1="0" y1="0.5" x2="1" y2="0.5" gradientTransform="matrix(51.527,0,0,54,1643.355,2844.187)" gradientUnits="userSpaceOnUse"><stop offset="0%" stop-opacity="1" style="stop-color:rgb(255,69,75)"/><stop offset="98.69565217391305%" stop-opacity="1" style="stop-color:rgb(215,69,255)"/></linearGradient><path d=" M 1643.355 2898.187 C 1671.793 2898.187 1694.882 2875.099 1694.882 2846.66 C 1694.882 2845.831 1694.862 2845.006 1694.821 2844.187 L 1694.821 2844.187 L 1643.355 2844.187 L 1643.355 2898.187 L 1643.355 2898.187 Z " fill="url(#_lgradient_18)"/><linearGradient id="_lgradient_19" x1="0" y1="0.5" x2="1" y2="0.5" gradientTransform="matrix(249.409,0,0,237.718,501.683,2494.469)" gradientUnits="userSpaceOnUse"><stop offset="0%" stop-opacity="1" style="stop-color:rgb(255,69,75)"/><stop offset="98.69565217391305%" stop-opacity="1" style="stop-color:rgb(215,69,255)"/></linearGradient><path d=" M 751.092 2732.187 L 501.683 2732.187 C 507.936 2599.927 617.296 2494.469 751.092 2494.469 L 751.092 2732.187 L 751.092 2732.187 Z " fill="url(#_lgradient_19)"/><linearGradient id="_lgradient_20" x1="0" y1="0.5" x2="1" y2="0.5" gradientTransform="matrix(117.508,0,0,112,1315.683,2732.187)" gradientUnits="userSpaceOnUse"><stop offset="0%" stop-opacity="1" style="stop-color:rgb(255,69,75)"/><stop offset="98.69565217391305%" stop-opacity="1" style="stop-color:rgb(215,69,255)"/></linearGradient><path d=" M 1433.191 2844.187 L 1315.683 2844.187 C 1318.629 2781.873 1370.154 2732.187 1433.191 2732.187 L 1433.191 2844.187 L 1433.191 2844.187 Z " fill="url(#_lgradient_20)"/><linearGradient id="_lgradient_21" x1="0" y1="0.5" x2="1" y2="0.5" gradientTransform="matrix(198.295,0,0,189,305.118,2709.187)" gradientUnits="userSpaceOnUse"><stop offset="0%" stop-opacity="1" style="stop-color:rgb(255,69,75)"/><stop offset="98.69565217391305%" stop-opacity="1" style="stop-color:rgb(215,69,255)"/></linearGradient><path d=" M 305.118 2898.187 L 503.413 2898.187 L 503.413 2898.187 C 498.442 2793.032 411.494 2709.187 305.118 2709.187 L 305.118 2898.187 L 305.118 2898.187 Z " fill="url(#_lgradient_21)"/><linearGradient id="_lgradient_22" x1="0" y1="0.5" x2="1" y2="0.5" gradientTransform="matrix(268.59,0,0,256,1280.683,2942.187)" gradientUnits="userSpaceOnUse"><stop offset="0%" stop-opacity="1" style="stop-color:rgb(255,69,75)"/><stop offset="98.69565217391305%" stop-opacity="1" style="stop-color:rgb(215,69,255)"/></linearGradient><path d=" M 1280.683 3198.187 L 1549.273 3198.187 L 1549.273 3198.187 C 1542.539 3055.755 1424.769 2942.187 1280.683 2942.187 L 1280.683 3198.187 L 1280.683 3198.187 Z " fill="url(#_lgradient_22)"/><path d="M 598.238 189.469 L 1314.033 189.469 C 1369.746 189.469 1414.978 234.701 1414.978 290.414 L 1414.978 2081.523 C 1414.978 2137.237 1369.746 2182.469 1314.033 2182.469 L 598.238 2182.469 C 542.525 2182.469 497.293 2137.237 497.293 2081.523 L 497.293 290.414 C 497.293 234.701 542.525 189.469 598.238 189.469 Z" style="stroke:none;fill:#EAE9E9;stroke-miterlimit:10;"/><path d="M 598.238 189.469 L 1314.033 189.469 C 1369.746 189.469 1414.978 234.701 1414.978 290.414 L 1414.978 2081.523 C 1414.978 2137.237 1369.746 2182.469 1314.033 2182.469 L 598.238 2182.469 C 542.525 2182.469 497.293 2137.237 497.293 2081.523 L 497.293 290.414 C 497.293 234.701 542.525 189.469 598.238 189.469 Z" style="fill:none;stroke:#000000;stroke-width:1;stroke-linecap:square;stroke-miterlimit:2;"/><path d="M 598.238 189.469 L 1314.033 189.469 C 1369.746 189.469 1414.978 234.701 1414.978 290.414 L 1414.978 2081.523 C 1414.978 2137.237 1369.746 2182.469 1314.033 2182.469 L 598.238 2182.469 C 542.525 2182.469 497.293 2137.237 497.293 2081.523 L 497.293 290.414 C 497.293 234.701 542.525 189.469 598.238 189.469 Z" style="stroke:none;fill:#EAE9E9;stroke-linecap:square;stroke-miterlimit:2;"/><path d="M 598.238 189.469 L 1314.033 189.469 C 1369.746 189.469 1414.978 234.701 1414.978 290.414 L 1414.978 2081.523 C 1414.978 2137.237 1369.746 2182.469 1314.033 2182.469 L 598.238 2182.469 C 542.525 2182.469 497.293 2137.237 497.293 2081.523 L 497.293 290.414 C 497.293 234.701 542.525 189.469 598.238 189.469 Z" style="fill:none;stroke:#000000;stroke-width:1;stroke-linecap:square;stroke-miterlimit:2;"/><path d="M 636.01 233.168 L 1276.26 233.168 C 1328.131 233.168 1370.244 275.281 1370.244 327.151 L 1370.244 2053.37 C 1370.244 2105.241 1328.131 2147.353 1276.26 2147.353 L 636.01 2147.353 C 584.14 2147.353 542.027 2105.241 542.027 2053.37 L 542.027 327.151 C 542.027 275.281 584.14 233.168 636.01 233.168 Z" style="stroke:none;fill:#FFFFFF;stroke-linecap:square;stroke-miterlimit:2;"/><path d="M 636.01 233.168 L 1276.26 233.168 C 1328.131 233.168 1370.244 275.281 1370.244 327.151 L 1370.244 2053.37 C 1370.244 2105.241 1328.131 2147.353 1276.26 2147.353 L 636.01 2147.353 C 584.14 2147.353 542.027 2105.241 542.027 2053.37 L 542.027 327.151 C 542.027 275.281 584.14 233.168 636.01 233.168 Z" style="fill:none;stroke:#0073FF;stroke-width:1;stroke-linecap:square;stroke-miterlimit:2;"/><clipPath id="_clipPath_aFhVzZPjvy8ykUHSGf3FmAwKVGeVrNQ8"><path d="M 636.01 233.168 L 1276.26 233.168 C 1328.131 233.168 1370.244 275.281 1370.244 327.151 L 1370.244 2053.37 C 1370.244 2105.241 1328.131 2147.353 1276.26 2147.353 L 636.01 2147.353 C 584.14 2147.353 542.027 2105.241 542.027 2053.37 L 542.027 327.151 C 542.027 275.281 584.14 233.168 636.01 233.168 Z" style="stroke:none;fill:#FFFFFF;stroke-linecap:square;stroke-miterlimit:2;"/><path d="M 636.01 233.168 L 1276.26 233.168 C 1328.131 233.168 1370.244 275.281 1370.244 327.151 L 1370.244 2053.37 C 1370.244 2105.241 1328.131 2147.353 1276.26 2147.353 L 636.01 2147.353 C 584.14 2147.353 542.027 2105.241 542.027 2053.37 L 542.027 327.151 C 542.027 275.281 584.14 233.168 636.01 233.168 Z" style="fill:none;stroke:#0073FF;stroke-width:1;stroke-linecap:square;stroke-miterlimit:2;"/></clipPath><g clip-path="url(#_clipPath_aFhVzZPjvy8ykUHSGf3FmAwKVGeVrNQ8)"><circle vector-effect="non-scaling-stroke" cx="1414.9780130921645" cy="2237.8733314296396" r="589.1601409553641" fill="rgb(35,150,200)" style="mix-blend-mode:multiply;"/></g><path d="M 632.499 233.168 L 1272.749 233.168 C 1324.62 233.168 1366.732 275.281 1366.732 327.151 L 1366.732 2053.37 C 1366.732 2105.241 1324.62 2147.353 1272.749 2147.353 L 632.499 2147.353 C 580.628 2147.353 538.516 2105.241 538.516 2053.37 L 538.516 327.151 C 538.516 275.281 580.628 233.168 632.499 233.168 Z" style="stroke:none;fill:#FFFFFF;stroke-linecap:square;stroke-miterlimit:2;"/><path d="M 632.499 233.168 L 1272.749 233.168 C 1324.62 233.168 1366.732 275.281 1366.732 327.151 L 1366.732 2053.37 C 1366.732 2105.241 1324.62 2147.353 1272.749 2147.353 L 632.499 2147.353 C 580.628 2147.353 538.516 2105.241 538.516 2053.37 L 538.516 327.151 C 538.516 275.281 580.628 233.168 632.499 233.168 Z" style="fill:none;stroke:#0073FF;stroke-width:1;stroke-linecap:square;stroke-miterlimit:2;"/><clipPath id="_clipPath_pK8EiiHpQQb00usXByzjf3jgLjaISYcF"><path d="M 632.499 233.168 L 1272.749 233.168 C 1324.62 233.168 1366.732 275.281 1366.732 327.151 L 1366.732 2053.37 C 1366.732 2105.241 1324.62 2147.353 1272.749 2147.353 L 632.499 2147.353 C 580.628 2147.353 538.516 2105.241 538.516 2053.37 L 538.516 327.151 C 538.516 275.281 580.628 233.168 632.499 233.168 Z" style="stroke:none;fill:#FFFFFF;stroke-linecap:square;stroke-miterlimit:2;"/><path d="M 632.499 233.168 L 1272.749 233.168 C 1324.62 233.168 1366.732 275.281 1366.732 327.151 L 1366.732 2053.37 C 1366.732 2105.241 1324.62 2147.353 1272.749 2147.353 L 632.499 2147.353 C 580.628 2147.353 538.516 2105.241 538.516 2053.37 L 538.516 327.151 C 538.516 275.281 580.628 233.168 632.499 233.168 Z" style="fill:none;stroke:#0073FF;stroke-width:1;stroke-linecap:square;stroke-miterlimit:2;"/></clipPath><g clip-path="url(#_clipPath_pK8EiiHpQQb00usXByzjf3jgLjaISYcF)"><linearGradient id="_lgradient_23" x1="0" y1="0.5" x2="1" y2="0.5" gradientTransform="matrix(1178.32,0,0,1178.32,822.306,1648.713)" gradientUnits="userSpaceOnUse"><stop offset="0%" stop-opacity="1" style="stop-color:rgb(255,38,117)"/><stop offset="100%" stop-opacity="1" style="stop-color:rgb(215,69,255)"/></linearGradient><circle vector-effect="non-scaling-stroke" cx="1411.4664625831588" cy="2237.8733314296396" r="589.1601409553641" fill="url(#_lgradient_23)" style="mix-blend-mode:multiply;"/></g><path d="M 814.113 1254.639 L 1098.158 1254.639 C 1127.445 1254.639 1151.222 1278.416 1151.222 1307.703 L 1151.222 1307.703 C 1151.222 1336.989 1127.445 1360.766 1098.158 1360.766 L 814.113 1360.766 C 784.826 1360.766 761.049 1336.989 761.049 1307.703 L 761.049 1307.703 C 761.049 1278.416 784.826 1254.639 814.113 1254.639 Z" style="stroke:none;fill:#9BCDD7;stroke-linecap:square;stroke-miterlimit:2;"/><path d="M 814.113 1254.639 L 1098.158 1254.639 C 1127.445 1254.639 1151.222 1278.416 1151.222 1307.703 L 1151.222 1307.703 C 1151.222 1336.989 1127.445 1360.766 1098.158 1360.766 L 814.113 1360.766 C 784.826 1360.766 761.049 1336.989 761.049 1307.703 L 761.049 1307.703 C 761.049 1278.416 784.826 1254.639 814.113 1254.639 Z" style="stroke:none;fill:#7FAFF7;stroke-linecap:square;stroke-miterlimit:2;"/><circle vector-effect="non-scaling-stroke" cx="1265.9322025988213" cy="335.39330010622473" r="45.25998433829295" fill="rgb(235,235,235)"/><circle vector-effect="non-scaling-stroke" cx="1265.9322025988213" cy="335.39330010622473" r="45.25998433829295" fill="rgb(235,235,235)"/><path d="M 740.604 839.496 L 1171.667 839.496 C 1181.917 839.496 1190.239 847.818 1190.239 858.068 L 1190.239 930.172 C 1190.239 940.422 1181.917 948.744 1171.667 948.744 L 740.604 948.744 C 730.354 948.744 722.032 940.422 722.032 930.172 L 722.032 858.068 C 722.032 847.818 730.354 839.496 740.604 839.496 Z" style="stroke:none;fill:#EBEBEB;stroke-linecap:square;stroke-miterlimit:2;"/><path d="M 740.604 839.496 L 1171.667 839.496 C 1181.917 839.496 1190.239 847.818 1190.239 858.068 L 1190.239 930.172 C 1190.239 940.422 1181.917 948.744 1171.667 948.744 L 740.604 948.744 C 730.354 948.744 722.032 940.422 722.032 930.172 L 722.032 858.068 C 722.032 847.818 730.354 839.496 740.604 839.496 Z" style="stroke:none;fill:#EBEBEB;stroke-linecap:square;stroke-miterlimit:2;"/><path d="M 740.604 1027.949 L 1171.667 1027.949 C 1181.917 1027.949 1190.239 1036.271 1190.239 1046.521 L 1190.239 1118.625 C 1190.239 1128.875 1181.917 1137.197 1171.667 1137.197 L 740.604 1137.197 C 730.354 1137.197 722.032 1128.875 722.032 1118.625 L 722.032 1046.521 C 722.032 1036.271 730.354 1027.949 740.604 1027.949 Z" style="stroke:none;fill:#EBEBEB;stroke-linecap:square;stroke-miterlimit:2;"/><path d="M 740.604 1027.949 L 1171.667 1027.949 C 1181.917 1027.949 1190.239 1036.271 1190.239 1046.521 L 1190.239 1118.625 C 1190.239 1128.875 1181.917 1137.197 1171.667 1137.197 L 740.604 1137.197 C 730.354 1137.197 722.032 1128.875 722.032 1118.625 L 722.032 1046.521 C 722.032 1036.271 730.354 1027.949 740.604 1027.949 Z" style="stroke:none;fill:#EBEBEB;stroke-linecap:square;stroke-miterlimit:2;"/></g></svg>