<?xml version="1.0" standalone="no"?><!-- Generator: Gravit.io --><svg xmlns="http://www.w3.org/2000/svg" xmlns:xlink="http://www.w3.org/1999/xlink" style="isolation:isolate" viewBox="0 0 1824 1568" width="1824" height="1568"><defs><clipPath id="_clipPath_RWKNlUpLmklRpN8R1bcyGDBL6XZYKkEv"><rect width="1824" height="1568"/></clipPath></defs><g clip-path="url(#_clipPath_RWKNlUpLmklRpN8R1bcyGDBL6XZYKkEv)"><g style="isolation:isolate"/><linearGradient id="_lgradient_19" x1="0" y1="0.5" x2="1" y2="0.5" gradientTransform="matrix(1540.021,0,0,1522.564,57,45.503)" gradientUnits="userSpaceOnUse"><stop offset="0%" stop-opacity="1" style="stop-color:rgb(14,0,51)"/><stop offset="98.26086956521739%" stop-opacity="1" style="stop-color:rgb(59,0,19)"/></linearGradient><path d=" M 468.324 349.784 C 228.327 438.232 57 669.077 57 939.621 C 57 1286.47 338.597 1568.068 685.446 1568.068 C 942.969 1568.068 1164.521 1412.837 1261.568 1190.928 C 1460.328 1091.939 1597.021 886.662 1597.021 649.711 C 1597.021 316.24 1326.285 45.503 992.814 45.503 C 768.472 45.503 572.523 168.036 468.324 349.784 Z " fill-rule="evenodd" fill="url(#_lgradient_19)"/><g style="isolation:isolate"><circle vector-effect="non-scaling-stroke" cx="1201" cy="1002" r="1" fill="rgb(7,4,15)"/><circle vector-effect="non-scaling-stroke" cx="324" cy="1002" r="1" fill="rgb(255,255,255)"/><circle vector-effect="non-scaling-stroke" cx="701" cy="1101" r="1" fill="rgb(255,255,255)"/><circle vector-effect="non-scaling-stroke" cx="401" cy="1002" r="1" fill="rgb(255,255,255)"/><circle vector-effect="non-scaling-stroke" cx="324" cy="1201" r="1" fill="rgb(255,255,255)"/><circle vector-effect="non-scaling-stroke" cx="287" cy="975.4156643692904" r="1" fill="rgb(255,255,255)"/></g><g style="isolation:isolate"><circle vector-effect="non-scaling-stroke" cx="1493" cy="371.5843356307096" r="1" fill="rgb(255,255,255)"/><circle vector-effect="non-scaling-stroke" cx="616" cy="371.5843356307096" r="1" fill="rgb(255,255,255)"/><circle vector-effect="non-scaling-stroke" cx="993" cy="470.5843356307096" r="1" fill="rgb(255,255,255)"/><circle vector-effect="non-scaling-stroke" cx="693" cy="371.5843356307096" r="1" fill="rgb(255,255,255)"/><circle vector-effect="non-scaling-stroke" cx="616" cy="570.5843356307096" r="1" fill="rgb(255,255,255)"/><circle vector-effect="non-scaling-stroke" cx="579" cy="345" r="1" fill="rgb(255,255,255)"/></g><g style="isolation:isolate"><path d=" M 154.156 1198.078 C 154.097 1198.627 153.604 1199.025 153.055 1198.966 C 152.507 1198.907 152.109 1198.414 152.167 1197.865 C 152.226 1197.317 152.719 1196.919 153.268 1196.977 C 153.817 1197.036 154.215 1197.529 154.156 1198.078 Z " fill="rgb(255,255,255)"/><path d=" M 1026.195 1291.226 C 1026.137 1291.775 1025.643 1292.173 1025.095 1292.115 C 1024.546 1292.056 1024.148 1291.563 1024.207 1291.014 C 1024.265 1290.465 1024.758 1290.067 1025.307 1290.126 C 1025.856 1290.185 1026.254 1290.678 1026.195 1291.226 Z " fill="rgb(255,255,255)"/><path d=" M 661.843 1152.744 C 661.784 1153.293 661.291 1153.691 660.742 1153.632 C 660.193 1153.574 659.795 1153.081 659.854 1152.532 C 659.913 1151.983 660.406 1151.585 660.955 1151.644 C 661.503 1151.702 661.901 1152.195 661.843 1152.744 Z " fill="rgb(255,255,255)"/><path d=" M 949.631 1283.048 C 949.572 1283.597 949.079 1283.995 948.53 1283.936 C 947.981 1283.878 947.583 1283.384 947.642 1282.836 C 947.701 1282.287 948.194 1281.889 948.743 1281.948 C 949.291 1282.006 949.689 1282.499 949.631 1283.048 Z " fill="rgb(255,255,255)"/><path d=" M 1047.332 1093.352 C 1047.273 1093.901 1046.78 1094.299 1046.231 1094.24 C 1045.682 1094.182 1045.284 1093.688 1045.343 1093.14 C 1045.401 1092.591 1045.895 1092.193 1046.443 1092.252 C 1046.992 1092.31 1047.39 1092.803 1047.332 1093.352 Z " fill="rgb(255,255,255)"/><path d=" M 1060.162 1321.59 C 1060.104 1322.139 1059.611 1322.537 1059.062 1322.478 C 1058.513 1322.42 1058.115 1321.927 1058.174 1321.378 C 1058.232 1320.829 1058.725 1320.431 1059.274 1320.49 C 1059.823 1320.548 1060.221 1321.041 1060.162 1321.59 Z " fill="rgb(255,255,255)"/></g></g></svg>