<?xml version="1.0" standalone="no"?><!-- Generator: Gravit.io --><svg xmlns="http://www.w3.org/2000/svg" xmlns:xlink="http://www.w3.org/1999/xlink" style="isolation:isolate" viewBox="0 0 1824 1568" width="1824" height="1568"><defs><clipPath id="_clipPath_938pVagteQA4zfEaklZe6uM9AZnWPDvE"><rect width="1824" height="1568"/></clipPath></defs><g clip-path="url(#_clipPath_938pVagteQA4zfEaklZe6uM9AZnWPDvE)"><g style="isolation:isolate"/><linearGradient id="_lgradient_12" x1="0" y1="0.5" x2="1" y2="0.5" gradientTransform="matrix(1540.021,0,0,1522.564,57,45.503)" gradientUnits="userSpaceOnUse"><stop offset="0%" stop-opacity="1" style="stop-color:rgb(14,0,51)"/><stop offset="98.26086956521739%" stop-opacity="1" style="stop-color:rgb(59,0,19)"/></linearGradient><path d=" M 468.324 349.784 C 228.327 438.232 57 669.077 57 939.621 C 57 1286.47 338.597 1568.068 685.446 1568.068 C 942.969 1568.068 1164.521 1412.837 1261.568 1190.928 C 1460.328 1091.939 1597.021 886.662 1597.021 649.711 C 1597.021 316.24 1326.285 45.503 992.814 45.503 C 768.472 45.503 572.523 168.036 468.324 349.784 Z " fill-rule="evenodd" fill="url(#_lgradient_12)"/><circle vector-effect="non-scaling-stroke" cx="914.4106521770864" cy="783.9999999999998" r="308.24581573725527" fill="rgb(235,235,235)"/><circle vector-effect="non-scaling-stroke" cx="914.4106521770864" cy="783.9999999999998" r="308.24581573725527" fill="rgb(255,0,111)"/><linearGradient id="_lgradient_13" x1="0" y1="0.5" x2="1" y2="0.5" gradientTransform="matrix(616.492,0,0,616.492,606.165,475.754)" gradientUnits="userSpaceOnUse"><stop offset="0%" stop-opacity="1" style="stop-color:rgb(255,0,111)"/><stop offset="97.82608695652173%" stop-opacity="1" style="stop-color:rgb(139,135,193)"/></linearGradient><circle vector-effect="non-scaling-stroke" cx="914.4106521770864" cy="783.9999999999998" r="308.24581573725527" fill="url(#_lgradient_13)"/><linearGradient id="_lgradient_14" x1="0" y1="0.5" x2="1" y2="0.5" gradientTransform="matrix(616.492,0,0,616.492,606.165,475.754)" gradientUnits="userSpaceOnUse"><stop offset="0%" stop-opacity="1" style="stop-color:rgb(255,0,111)"/><stop offset="97.82608695652173%" stop-opacity="1" style="stop-color:rgb(139,135,193)"/></linearGradient><circle vector-effect="non-scaling-stroke" cx="914.4106521770864" cy="783.9999999999998" r="308.24581573725527" fill="url(#_lgradient_14)"/><g opacity="0.76"><linearGradient id="_lgradient_15" x1="0" y1="0.5" x2="1" y2="0.5" gradientTransform="matrix(-387.098,-479.81,479.81,-387.098,1066.696,1068.949)" gradientUnits="userSpaceOnUse"><stop offset="0%" stop-opacity="1" style="stop-color:rgb(255,0,111)"/><stop offset="97.82608695652173%" stop-opacity="1" style="stop-color:rgb(139,135,193)"/></linearGradient><path d=" M 1306.6 875.4 C 1174.193 982.223 979.969 961.451 873.147 829.044 C 766.324 696.637 787.096 502.413 919.503 395.59 C 1051.91 288.768 1246.134 309.539 1352.957 441.947 C 1459.779 574.354 1439.008 768.578 1306.6 875.4 Z " fill="url(#_lgradient_15)"/></g><ellipse vector-effect="non-scaling-stroke" cx="996.2500525815014" cy="703.921060379614" rx="600.7713040354174" ry="599.6922769740711" fill="none" stroke-width="0.2" stroke="rgb(0,0,0)" stroke-linejoin="miter" stroke-linecap="butt" stroke-miterlimit="3"/><ellipse vector-effect="non-scaling-stroke" cx="914.4106521770866" cy="783.9999999999999" rx="785.4106521770866" ry="784.0000000000001" fill="none" stroke-width="0.5" stroke="rgb(255,50,108)" stroke-linejoin="miter" stroke-linecap="butt" stroke-miterlimit="3"/><linearGradient id="_lgradient_16" x1="0" y1="0.5" x2="1" y2="0.5" gradientTransform="matrix(23,0,0,23,291.25,1266.229)" gradientUnits="userSpaceOnUse"><stop offset="0%" stop-opacity="1" style="stop-color:rgb(0,0,0)"/><stop offset="100%" stop-opacity="1" style="stop-color:rgb(189,0,76)"/></linearGradient><circle vector-effect="non-scaling-stroke" cx="302.75005258150145" cy="1277.7287834055428" r="11.5" fill="url(#_lgradient_16)"/><linearGradient id="_lgradient_17" x1="0" y1="0.5" x2="1" y2="0.5" gradientTransform="matrix(14,0,0,15,644.25,1188.229)" gradientUnits="userSpaceOnUse"><stop offset="0%" stop-opacity="1" style="stop-color:rgb(18,10,38)"/><stop offset="97.82608695652173%" stop-opacity="1" style="stop-color:rgb(115,0,33)"/></linearGradient><ellipse vector-effect="non-scaling-stroke" cx="651.2500525815013" cy="1195.7287834055426" rx="7" ry="7.5" fill="url(#_lgradient_17)"/><g transform="matrix(1,0,0,1,194.25,1271.458)"><text transform="matrix(1,0,0,1,0,12.667)" style="font-family:'Numans';font-weight:400;font-size:14px;font-style:normal;fill:#ffffff;stroke:none;">Major Tom</text></g><line x1="276" y1="1280.343" x2="286" y2="1280.343" vector-effect="non-scaling-stroke" stroke-width="1" stroke="rgb(176,176,176)" stroke-linejoin="miter" stroke-linecap="square" stroke-miterlimit="3"/><g transform="matrix(1,0,0,1,515,1170.843)"><text transform="matrix(1,0,0,1,0,10.857)" style="font-family:'Numans';font-weight:400;font-size:12px;font-style:normal;fill:#ffffff;stroke:none;">Restaurant at </text><text transform="matrix(1,0,0,1,0,24.955)" style="font-family:'Numans';font-weight:400;font-size:12px;font-style:normal;fill:#ffffff;stroke:none;">the End of the </text><text transform="matrix(1,0,0,1,0,39.053)" style="font-family:'Numans';font-weight:400;font-size:12px;font-style:normal;fill:#ffffff;stroke:none;">Universe</text></g><line x1="616" y1="1197.114" x2="626" y2="1197.114" vector-effect="non-scaling-stroke" stroke-width="1" stroke="rgb(38,23,66)" stroke-linejoin="miter" stroke-linecap="square" stroke-miterlimit="3"/><linearGradient id="_lgradient_18" x1="0" y1="0.5" x2="1" y2="0.5"><stop offset="0%" stop-opacity="1" style="stop-color:rgb(255,0,119)"/><stop offset="100%" stop-opacity="1" style="stop-color:rgb(23,0,59)"/></linearGradient><path d=" M 1172.204 606.252 C 1269.89 612.417 1336.213 638.24 1346.484 681.615 C 1366.092 764.414 1174.076 880.02 917.958 939.616 C 661.839 999.211 437.985 980.373 418.378 897.574 C 405.499 843.191 483.913 774.656 611.877 717.146" fill="none" vector-effect="non-scaling-stroke" stroke-width="2" stroke="url(#_lgradient_18)" stroke-opacity="0.5" stroke-linejoin="miter" stroke-linecap="square" stroke-miterlimit="3"/><g style="isolation:isolate"><circle vector-effect="non-scaling-stroke" cx="1201" cy="1002" r="1" fill="rgb(7,4,15)"/><circle vector-effect="non-scaling-stroke" cx="324" cy="1002" r="1" fill="rgb(255,255,255)"/><circle vector-effect="non-scaling-stroke" cx="701" cy="1101" r="1" fill="rgb(255,255,255)"/><circle vector-effect="non-scaling-stroke" cx="401" cy="1002" r="1" fill="rgb(255,255,255)"/><circle vector-effect="non-scaling-stroke" cx="324" cy="1201" r="1" fill="rgb(255,255,255)"/><circle vector-effect="non-scaling-stroke" cx="287" cy="975.4156643692904" r="1" fill="rgb(255,255,255)"/></g><g style="isolation:isolate"><circle vector-effect="non-scaling-stroke" cx="1493" cy="371.5843356307096" r="1" fill="rgb(255,255,255)"/><circle vector-effect="non-scaling-stroke" cx="616" cy="371.5843356307096" r="1" fill="rgb(255,255,255)"/><circle vector-effect="non-scaling-stroke" cx="993" cy="470.5843356307096" r="1" fill="rgb(255,255,255)"/><circle vector-effect="non-scaling-stroke" cx="693" cy="371.5843356307096" r="1" fill="rgb(255,255,255)"/><circle vector-effect="non-scaling-stroke" cx="616" cy="570.5843356307096" r="1" fill="rgb(255,255,255)"/><circle vector-effect="non-scaling-stroke" cx="579" cy="345" r="1" fill="rgb(255,255,255)"/></g><g style="isolation:isolate"><path d=" M 154.156 1198.078 C 154.097 1198.627 153.604 1199.025 153.055 1198.966 C 152.507 1198.907 152.109 1198.414 152.167 1197.865 C 152.226 1197.317 152.719 1196.919 153.268 1196.977 C 153.817 1197.036 154.215 1197.529 154.156 1198.078 Z " fill="rgb(255,255,255)"/><path d=" M 1026.195 1291.226 C 1026.137 1291.775 1025.643 1292.173 1025.095 1292.115 C 1024.546 1292.056 1024.148 1291.563 1024.207 1291.014 C 1024.265 1290.465 1024.758 1290.067 1025.307 1290.126 C 1025.856 1290.185 1026.254 1290.678 1026.195 1291.226 Z " fill="rgb(255,255,255)"/><path d=" M 661.843 1152.744 C 661.784 1153.293 661.291 1153.691 660.742 1153.632 C 660.193 1153.574 659.795 1153.081 659.854 1152.532 C 659.913 1151.983 660.406 1151.585 660.955 1151.644 C 661.503 1151.702 661.901 1152.195 661.843 1152.744 Z " fill="rgb(255,255,255)"/><path d=" M 949.631 1283.048 C 949.572 1283.597 949.079 1283.995 948.53 1283.936 C 947.981 1283.878 947.583 1283.384 947.642 1282.836 C 947.701 1282.287 948.194 1281.889 948.743 1281.948 C 949.291 1282.006 949.689 1282.499 949.631 1283.048 Z " fill="rgb(255,255,255)"/><path d=" M 1047.332 1093.352 C 1047.273 1093.901 1046.78 1094.299 1046.231 1094.24 C 1045.682 1094.182 1045.284 1093.688 1045.343 1093.14 C 1045.401 1092.591 1045.895 1092.193 1046.443 1092.252 C 1046.992 1092.31 1047.39 1092.803 1047.332 1093.352 Z " fill="rgb(255,255,255)"/><path d=" M 1060.162 1321.59 C 1060.104 1322.139 1059.611 1322.537 1059.062 1322.478 C 1058.513 1322.42 1058.115 1321.927 1058.174 1321.378 C 1058.232 1320.829 1058.725 1320.431 1059.274 1320.49 C 1059.823 1320.548 1060.221 1321.041 1060.162 1321.59 Z " fill="rgb(255,255,255)"/></g></g></svg>