<?xml version="1.0" standalone="no"?><!-- Generator: Gravit.io --><svg xmlns="http://www.w3.org/2000/svg" xmlns:xlink="http://www.w3.org/1999/xlink" style="isolation:isolate" viewBox="0 0 1824 1568" width="1824" height="1568"><defs><clipPath id="_clipPath_xdOKrAzDSmLrtRVIfYs6vEa80is2Lwp7"><rect width="1824" height="1568"/></clipPath></defs><g clip-path="url(#_clipPath_xdOKrAzDSmLrtRVIfYs6vEa80is2Lwp7)"><g style="isolation:isolate"/><linearGradient id="_lgradient_5" x1="0" y1="0.5" x2="1" y2="0.5" gradientTransform="matrix(1540.021,0,0,1522.564,57,45.503)" gradientUnits="userSpaceOnUse"><stop offset="0%" stop-opacity="1" style="stop-color:rgb(14,0,51)"/><stop offset="98.26086956521739%" stop-opacity="1" style="stop-color:rgb(59,0,19)"/></linearGradient><path d=" M 468.324 349.784 C 228.327 438.232 57 669.077 57 939.621 C 57 1286.47 338.597 1568.068 685.446 1568.068 C 942.969 1568.068 1164.521 1412.837 1261.568 1190.928 C 1460.328 1091.939 1597.021 886.662 1597.021 649.711 C 1597.021 316.24 1326.285 45.503 992.814 45.503 C 768.472 45.503 572.523 168.036 468.324 349.784 Z " fill-rule="evenodd" fill="url(#_lgradient_5)"/><circle vector-effect="non-scaling-stroke" cx="914.4106521770864" cy="783.9999999999998" r="308.24581573725527" fill="rgb(235,235,235)"/><circle vector-effect="non-scaling-stroke" cx="914.4106521770864" cy="783.9999999999998" r="308.24581573725527" fill="rgb(255,0,111)"/><linearGradient id="_lgradient_6" x1="0" y1="0.5" x2="1" y2="0.5" gradientTransform="matrix(616.492,0,0,616.492,606.165,475.754)" gradientUnits="userSpaceOnUse"><stop offset="0%" stop-opacity="1" style="stop-color:rgb(255,0,111)"/><stop offset="97.82608695652173%" stop-opacity="1" style="stop-color:rgb(139,135,193)"/></linearGradient><circle vector-effect="non-scaling-stroke" cx="914.4106521770864" cy="783.9999999999998" r="308.24581573725527" fill="url(#_lgradient_6)"/><linearGradient id="_lgradient_7" x1="0" y1="0.5" x2="1" y2="0.5" gradientTransform="matrix(616.492,0,0,616.492,606.165,475.754)" gradientUnits="userSpaceOnUse"><stop offset="0%" stop-opacity="1" style="stop-color:rgb(255,0,111)"/><stop offset="97.82608695652173%" stop-opacity="1" style="stop-color:rgb(139,135,193)"/></linearGradient><circle vector-effect="non-scaling-stroke" cx="914.4106521770864" cy="783.9999999999998" r="308.24581573725527" fill="url(#_lgradient_7)"/><g opacity="0.76"><linearGradient id="_lgradient_8" x1="0" y1="0.5" x2="1" y2="0.5" gradientTransform="matrix(-387.098,-479.81,479.81,-387.098,1066.696,1068.949)" gradientUnits="userSpaceOnUse"><stop offset="0%" stop-opacity="1" style="stop-color:rgb(255,0,111)"/><stop offset="97.82608695652173%" stop-opacity="1" style="stop-color:rgb(139,135,193)"/></linearGradient><path d=" M 1306.6 875.4 C 1174.193 982.223 979.969 961.451 873.147 829.044 C 766.324 696.637 787.096 502.413 919.503 395.59 C 1051.91 288.768 1246.134 309.539 1352.957 441.947 C 1459.779 574.354 1439.008 768.578 1306.6 875.4 Z " fill="url(#_lgradient_8)"/></g><ellipse vector-effect="non-scaling-stroke" cx="996.2500525815014" cy="703.921060379614" rx="600.7713040354174" ry="599.6922769740711" fill="none" stroke-width="0.2" stroke="rgb(0,0,0)" stroke-linejoin="miter" stroke-linecap="butt" stroke-miterlimit="3"/><ellipse vector-effect="non-scaling-stroke" cx="914.4106521770866" cy="783.9999999999999" rx="785.4106521770866" ry="784.0000000000001" fill="none" stroke-width="0.5" stroke="rgb(255,50,108)" stroke-linejoin="miter" stroke-linecap="butt" stroke-miterlimit="3"/><linearGradient id="_lgradient_9" x1="0" y1="0.5" x2="1" y2="0.5" gradientTransform="matrix(23,0,0,23,291.25,1266.229)" gradientUnits="userSpaceOnUse"><stop offset="0%" stop-opacity="1" style="stop-color:rgb(0,0,0)"/><stop offset="100%" stop-opacity="1" style="stop-color:rgb(189,0,76)"/></linearGradient><circle vector-effect="non-scaling-stroke" cx="302.75005258150145" cy="1277.7287834055428" r="11.5" fill="url(#_lgradient_9)"/><linearGradient id="_lgradient_10" x1="0" y1="0.5" x2="1" y2="0.5" gradientTransform="matrix(14,0,0,15,644.25,1188.229)" gradientUnits="userSpaceOnUse"><stop offset="0%" stop-opacity="1" style="stop-color:rgb(18,10,38)"/><stop offset="97.82608695652173%" stop-opacity="1" style="stop-color:rgb(115,0,33)"/></linearGradient><ellipse vector-effect="non-scaling-stroke" cx="651.2500525815013" cy="1195.7287834055426" rx="7" ry="7.5" fill="url(#_lgradient_10)"/><g transform="matrix(1,0,0,1,194.25,1271.458)"><text transform="matrix(1,0,0,1,0,12.667)" style="font-family:'Numans';font-weight:400;font-size:14px;font-style:normal;fill:#ffffff;stroke:none;">Major Tom</text></g><line x1="276" y1="1280.343" x2="286" y2="1280.343" vector-effect="non-scaling-stroke" stroke-width="1" stroke="rgb(176,176,176)" stroke-linejoin="miter" stroke-linecap="square" stroke-miterlimit="3"/><g transform="matrix(1,0,0,1,515,1170.843)"><text transform="matrix(1,0,0,1,0,10.857)" style="font-family:'Numans';font-weight:400;font-size:12px;font-style:normal;fill:#ffffff;stroke:none;">Restaurant at </text><text transform="matrix(1,0,0,1,0,24.955)" style="font-family:'Numans';font-weight:400;font-size:12px;font-style:normal;fill:#ffffff;stroke:none;">the End of the </text><text transform="matrix(1,0,0,1,0,39.053)" style="font-family:'Numans';font-weight:400;font-size:12px;font-style:normal;fill:#ffffff;stroke:none;">Universe</text></g><line x1="616" y1="1197.114" x2="626" y2="1197.114" vector-effect="non-scaling-stroke" stroke-width="1" stroke="rgb(38,23,66)" stroke-linejoin="miter" stroke-linecap="square" stroke-miterlimit="3"/><linearGradient id="_lgradient_11" x1="0" y1="0.5" x2="1" y2="0.5"><stop offset="0%" stop-opacity="1" style="stop-color:rgb(255,0,119)"/><stop offset="100%" stop-opacity="1" style="stop-color:rgb(23,0,59)"/></linearGradient><path d=" M 1172.204 606.252 C 1269.89 612.417 1336.213 638.24 1346.484 681.615 C 1366.092 764.414 1174.076 880.02 917.958 939.616 C 661.839 999.211 437.985 980.373 418.378 897.574 C 405.499 843.191 483.913 774.656 611.877 717.146" fill="none" vector-effect="non-scaling-stroke" stroke-width="2" stroke="url(#_lgradient_11)" stroke-opacity="0.5" stroke-linejoin="miter" stroke-linecap="square" stroke-miterlimit="3"/></g></svg>